<svg width="165" height="24" viewBox="0 0 165 24" fill="none" xmlns="http://www.w3.org/2000/svg">
<path d="M11.5617 24C9.35944 24 7.37744 23.4945 5.61566 22.4835C3.87391 21.4505 2.50252 20.022 1.50151 18.1978C0.500505 16.3736 0 14.3077 0 12C0 9.69231 0.500505 7.62637 1.50151 5.8022C2.50252 3.97802 3.87391 2.56044 5.61566 1.54945C7.37744 0.516483 9.35944 0 11.5617 0C13.4836 0 15.2153 0.373627 16.7569 1.12088C18.2985 1.86813 19.5797 2.94506 20.6008 4.35165L16.817 8.10989C15.4556 6.30769 13.8039 5.40659 11.862 5.40659C10.7208 5.40659 9.69978 5.68132 8.79887 6.23077C7.91799 6.78022 7.22729 7.56044 6.72678 8.57143C6.2463 9.56044 6.00606 10.7033 6.00606 12C6.00606 13.2967 6.2463 14.4505 6.72678 15.4615C7.22729 16.4505 7.91799 17.2198 8.79887 17.7692C9.69978 18.3187 10.7208 18.5934 11.862 18.5934C13.8039 18.5934 15.4556 17.6923 16.817 15.8901L20.6008 19.6483C19.5797 21.0549 18.2985 22.1319 16.7569 22.8791C15.2153 23.6264 13.4836 24 11.5617 24Z" fill="#010101"/>
<path d="M22.351 0.461538H28.297V18.3626H38.3271V23.5385H22.351V0.461538Z" fill="#010101"/>
<path d="M55.9654 19.0549H47.0765L45.4248 23.5385H39.3587L48.638 0.461538H54.4939L63.8033 23.5385H57.6171L55.9654 19.0549ZM54.2237 14.2418L51.5209 6.85714L48.8182 14.2418H54.2237Z" fill="#010101"/>
<path d="M73.1768 24C71.475 24 69.8234 23.7692 68.2218 23.3077C66.6202 22.8462 65.3188 22.2308 64.3178 21.4615L66.2698 16.6484C67.2107 17.3297 68.3018 17.8791 69.5431 18.2967C70.7843 18.7143 72.0056 18.9231 73.2068 18.9231C75.4891 18.9231 76.6302 18.2967 76.6302 17.044C76.6302 16.3846 76.2999 15.9011 75.6392 15.5934C74.9986 15.2637 73.9575 14.9231 72.5161 14.5714C70.9345 14.1978 69.6132 13.8022 68.5521 13.3846C67.491 12.9451 66.5801 12.2527 65.8193 11.3077C65.0586 10.3626 64.6782 9.08791 64.6782 7.48352C64.6782 6.07692 65.0285 4.81319 65.7292 3.69231C66.43 2.54945 67.471 1.64835 68.8524 0.989012C70.2538 0.329671 71.9655 0 73.9876 0C75.369 0 76.7304 0.175825 78.0717 0.527474C79.4131 0.857143 80.5942 1.35165 81.6153 2.01099L79.7834 6.85714C77.7814 5.67033 75.8395 5.07692 73.9576 5.07692C72.7764 5.07692 71.9155 5.27473 71.3749 5.67033C70.8344 6.04396 70.5641 6.53846 70.5641 7.15385C70.5641 7.76923 70.8845 8.23077 71.5251 8.53846C72.1657 8.84615 73.1968 9.16483 74.6182 9.4945C76.2198 9.86813 77.5412 10.2747 78.5822 10.7143C79.6433 11.1319 80.5542 11.8132 81.315 12.7582C82.0958 13.6813 82.4861 14.9451 82.4861 16.5494C82.4861 17.9341 82.1358 19.1868 81.4351 20.3077C80.7344 21.4286 79.6833 22.3297 78.2819 23.011C76.8805 23.6703 75.1788 24 73.1768 24Z" fill="#010101"/>
<path d="M92.9205 24C91.2188 24 89.5671 23.7692 87.9655 23.3077C86.3639 22.8462 85.0626 22.2308 84.0616 21.4615L86.0135 16.6484C86.9545 17.3297 88.0456 17.8791 89.2868 18.2967C90.5281 18.7143 91.7493 18.9231 92.9505 18.9231C95.2328 18.9231 96.374 18.2967 96.374 17.044C96.374 16.3846 96.0437 15.9011 95.383 15.5934C94.7423 15.2637 93.7013 14.9231 92.2598 14.5714C90.6782 14.1978 89.3569 13.8022 88.2958 13.3846C87.2348 12.9451 86.3239 12.2527 85.5631 11.3077C84.8023 10.3626 84.4219 9.08791 84.4219 7.48352C84.4219 6.07692 84.7723 4.81319 85.473 3.69231C86.1737 2.54945 87.2147 1.64835 88.5961 0.989012C89.9976 0.329671 91.7093 0 93.7313 0C95.1127 0 96.4741 0.175825 97.8154 0.527474C99.1568 0.857143 100.338 1.35165 101.359 2.01099L99.5272 6.85714C97.5251 5.67033 95.5832 5.07692 93.7013 5.07692C92.5201 5.07692 91.6592 5.27473 91.1187 5.67033C90.5781 6.04396 90.3079 6.53846 90.3079 7.15385C90.3079 7.76923 90.6282 8.23077 91.2688 8.53846C91.9095 8.84615 92.9405 9.16483 94.362 9.4945C95.9636 9.86813 97.2849 10.2747 98.326 10.7143C99.387 11.1319 100.298 11.8132 101.059 12.7582C101.84 13.6813 102.23 14.9451 102.23 16.5494C102.23 17.9341 101.88 19.1868 101.179 20.3077C100.478 21.4286 99.4271 22.3297 98.0257 23.011C96.6242 23.6703 94.9225 24 92.9205 24Z" fill="#010101"/>
<path d="M124.016 19.1209H120.893V23.5385H115.097V19.1209H103.985V14.8681L113.415 0.461538H119.571L111.013 13.9451H115.277V10.022H120.893V13.9451H124.016V19.1209Z" fill="#010101"/>
<path d="M134.202 24C132.4 24 130.798 23.5275 129.397 22.5824C127.996 21.6374 126.894 20.2637 126.094 18.4615C125.313 16.6374 124.922 14.4835 124.922 12C124.922 9.51648 125.313 7.37363 126.094 5.57143C126.894 3.74725 127.996 2.36264 129.397 1.41758C130.798 0.472528 132.4 0 134.202 0C135.984 0 137.575 0.472528 138.977 1.41758C140.378 2.36264 141.469 3.74725 142.25 5.57143C143.051 7.37363 143.451 9.51648 143.451 12C143.451 14.4835 143.051 16.6374 142.25 18.4615C141.469 20.2637 140.378 21.6374 138.977 22.5824C137.575 23.5275 135.984 24 134.202 24ZM134.202 18.6593C135.203 18.6593 135.994 18.1319 136.574 17.0769C137.175 16 137.475 14.3077 137.475 12C137.475 9.69231 137.175 8.01099 136.574 6.95604C135.994 5.87912 135.203 5.34066 134.202 5.34066C133.181 5.34066 132.37 5.87912 131.769 6.95604C131.189 8.01099 130.898 9.69231 130.898 12C130.898 14.3077 131.189 16 131.769 17.0769C132.37 18.1319 133.181 18.6593 134.202 18.6593Z" fill="#010101"/>
<path d="M165 19.1209H161.877V23.5385H156.081V19.1209H144.97V14.8681L154.399 0.461538H160.556L151.997 13.9451H156.261V10.022H161.877V13.9451H165V19.1209Z" fill="#010101"/>
</svg>
